<mxfile host="app.diagrams.net" modified="2020-08-31T08:58:02.774Z" agent="5.0 (Macintosh; Intel Mac OS X 10_15_3) AppleWebKit/537.36 (KHTML, like Gecko) Chrome/84.0.4147.125 Safari/537.36" etag="PqaCmiyR3GWJHcd0z8mD" version="13.6.5" type="github">
  <diagram id="OnzgyLCP9t5Oc3sLq-lT" name="Page-1">
    <mxGraphModel dx="1188" dy="643" grid="1" gridSize="10" guides="1" tooltips="1" connect="1" arrows="1" fold="1" page="1" pageScale="1" pageWidth="1200" pageHeight="1920" math="0" shadow="0">
      <root>
        <mxCell id="0" />
        <mxCell id="1" parent="0" />
        <mxCell id="eZFEHE-rbK6bmzk9ROiz-31" value="" style="rounded=1;whiteSpace=wrap;html=1;" vertex="1" parent="1">
          <mxGeometry x="310" y="302" width="780" height="258" as="geometry" />
        </mxCell>
        <mxCell id="eZFEHE-rbK6bmzk9ROiz-23" value="" style="rounded=1;whiteSpace=wrap;html=1;" vertex="1" parent="1">
          <mxGeometry x="450" y="322" width="590" height="100" as="geometry" />
        </mxCell>
        <mxCell id="eZFEHE-rbK6bmzk9ROiz-1" value="&lt;font style=&quot;font-size: 20px&quot;&gt;存储层&lt;/font&gt;" style="text;html=1;strokeColor=#666666;fillColor=#f5f5f5;align=center;verticalAlign=middle;whiteSpace=wrap;rounded=0;fontColor=#333333;" vertex="1" parent="1">
          <mxGeometry x="100" y="590" width="150" height="50" as="geometry" />
        </mxCell>
        <mxCell id="eZFEHE-rbK6bmzk9ROiz-2" value="&lt;span style=&quot;font-size: 20px&quot;&gt;业务逻辑层&lt;/span&gt;" style="text;html=1;strokeColor=#666666;fillColor=#f5f5f5;align=center;verticalAlign=middle;whiteSpace=wrap;rounded=0;fontColor=#333333;" vertex="1" parent="1">
          <mxGeometry x="100" y="406" width="150" height="50" as="geometry" />
        </mxCell>
        <mxCell id="eZFEHE-rbK6bmzk9ROiz-3" value="&lt;span style=&quot;font-size: 20px&quot;&gt;服务层&lt;/span&gt;" style="text;html=1;strokeColor=#666666;fillColor=#f5f5f5;align=center;verticalAlign=middle;whiteSpace=wrap;rounded=0;fontColor=#333333;" vertex="1" parent="1">
          <mxGeometry x="90" y="220" width="150" height="50" as="geometry" />
        </mxCell>
        <mxCell id="eZFEHE-rbK6bmzk9ROiz-4" value="&lt;span style=&quot;font-size: 20px&quot;&gt;控制层&lt;/span&gt;" style="text;html=1;strokeColor=#666666;fillColor=#f5f5f5;align=center;verticalAlign=middle;whiteSpace=wrap;rounded=0;fontColor=#333333;" vertex="1" parent="1">
          <mxGeometry x="90" y="117.5" width="150" height="50" as="geometry" />
        </mxCell>
        <mxCell id="eZFEHE-rbK6bmzk9ROiz-5" value="&lt;span style=&quot;font-size: 20px&quot;&gt;展示层&lt;/span&gt;" style="text;html=1;strokeColor=#666666;fillColor=#f5f5f5;align=center;verticalAlign=middle;whiteSpace=wrap;rounded=0;fontColor=#333333;" vertex="1" parent="1">
          <mxGeometry x="90" y="37.5" width="150" height="50" as="geometry" />
        </mxCell>
        <mxCell id="eZFEHE-rbK6bmzk9ROiz-6" value="&lt;font style=&quot;font-size: 20px&quot;&gt;Mysql 数据库&lt;/font&gt;" style="rounded=1;whiteSpace=wrap;html=1;" vertex="1" parent="1">
          <mxGeometry x="310" y="590" width="780" height="55" as="geometry" />
        </mxCell>
        <mxCell id="eZFEHE-rbK6bmzk9ROiz-8" value="&lt;font style=&quot;font-size: 17px&quot;&gt;基础组件&lt;/font&gt;" style="text;html=1;strokeColor=#6c8ebf;fillColor=#dae8fc;align=center;verticalAlign=middle;whiteSpace=wrap;rounded=0;shadow=1;" vertex="1" parent="1">
          <mxGeometry x="330" y="470" width="90" height="40" as="geometry" />
        </mxCell>
        <mxCell id="eZFEHE-rbK6bmzk9ROiz-9" value="&lt;font style=&quot;font-size: 17px&quot;&gt;功能组件&lt;/font&gt;" style="text;html=1;strokeColor=#6c8ebf;fillColor=#dae8fc;align=center;verticalAlign=middle;whiteSpace=wrap;rounded=0;shadow=1;" vertex="1" parent="1">
          <mxGeometry x="330" y="352" width="90" height="40" as="geometry" />
        </mxCell>
        <mxCell id="eZFEHE-rbK6bmzk9ROiz-10" value="" style="rounded=1;whiteSpace=wrap;html=1;" vertex="1" parent="1">
          <mxGeometry x="440" y="456" width="630" height="70" as="geometry" />
        </mxCell>
        <mxCell id="eZFEHE-rbK6bmzk9ROiz-11" value="&lt;font style=&quot;font-size: 15px&quot;&gt;Common Code&lt;/font&gt;" style="rounded=1;whiteSpace=wrap;html=1;shadow=1;" vertex="1" parent="1">
          <mxGeometry x="560" y="470" width="100" height="40" as="geometry" />
        </mxCell>
        <mxCell id="eZFEHE-rbK6bmzk9ROiz-12" value="&lt;font&gt;&lt;span style=&quot;font-size: 15px&quot;&gt;Security &amp;amp;&amp;nbsp;&lt;/span&gt;&lt;/font&gt;&lt;span style=&quot;font-size: 15px&quot;&gt;Audit&lt;/span&gt;" style="rounded=1;whiteSpace=wrap;html=1;shadow=1;" vertex="1" parent="1">
          <mxGeometry x="450" y="470" width="100" height="40" as="geometry" />
        </mxCell>
        <mxCell id="eZFEHE-rbK6bmzk9ROiz-14" value="&lt;font style=&quot;font-size: 15px&quot;&gt;Scheduler&lt;/font&gt;" style="rounded=1;whiteSpace=wrap;html=1;shadow=1;" vertex="1" parent="1">
          <mxGeometry x="670" y="470" width="80" height="40" as="geometry" />
        </mxCell>
        <mxCell id="eZFEHE-rbK6bmzk9ROiz-15" value="&lt;font style=&quot;font-size: 15px&quot;&gt;Error Handler&lt;/font&gt;" style="rounded=1;whiteSpace=wrap;html=1;shadow=1;" vertex="1" parent="1">
          <mxGeometry x="762" y="470" width="100" height="40" as="geometry" />
        </mxCell>
        <mxCell id="eZFEHE-rbK6bmzk9ROiz-16" value="&lt;font style=&quot;font-size: 15px&quot;&gt;POJO &amp;amp; ORM Mapping&lt;/font&gt;" style="rounded=1;whiteSpace=wrap;html=1;shadow=1;" vertex="1" parent="1">
          <mxGeometry x="877" y="470" width="118" height="40" as="geometry" />
        </mxCell>
        <mxCell id="eZFEHE-rbK6bmzk9ROiz-17" value="&lt;span style=&quot;font-size: 15px&quot;&gt;.......&lt;/span&gt;" style="rounded=1;whiteSpace=wrap;html=1;shadow=1;" vertex="1" parent="1">
          <mxGeometry x="1010" y="470" width="47" height="40" as="geometry" />
        </mxCell>
        <mxCell id="eZFEHE-rbK6bmzk9ROiz-19" value="&lt;span style=&quot;font-size: 15px&quot;&gt;Fetcher P&lt;/span&gt;&lt;span style=&quot;font-size: 15px&quot;&gt;lugin&lt;/span&gt;" style="rounded=1;whiteSpace=wrap;html=1;shadow=1;" vertex="1" parent="1">
          <mxGeometry x="490" y="342" width="120" height="60" as="geometry" />
        </mxCell>
        <mxCell id="eZFEHE-rbK6bmzk9ROiz-20" value="&lt;span style=&quot;color: rgb(51 , 51 , 51) ; font-size: 18px&quot;&gt;Heuristic&lt;/span&gt;&lt;span style=&quot;font-size: 15px&quot;&gt;&amp;nbsp;P&lt;/span&gt;&lt;span style=&quot;font-size: 15px&quot;&gt;lugin&lt;/span&gt;" style="rounded=1;whiteSpace=wrap;html=1;shadow=1;" vertex="1" parent="1">
          <mxGeometry x="660" y="342" width="140" height="60" as="geometry" />
        </mxCell>
        <mxCell id="eZFEHE-rbK6bmzk9ROiz-22" value="&lt;font color=&quot;#333333&quot;&gt;&lt;span style=&quot;font-size: 18px&quot;&gt;Score&amp;nbsp;&lt;/span&gt;&lt;span style=&quot;font-size: 18px&quot;&gt;Algorithm&lt;/span&gt;&lt;/font&gt;" style="rounded=1;whiteSpace=wrap;html=1;shadow=1;" vertex="1" parent="1">
          <mxGeometry x="852" y="342" width="148" height="60" as="geometry" />
        </mxCell>
        <mxCell id="eZFEHE-rbK6bmzk9ROiz-24" value="" style="rounded=1;whiteSpace=wrap;html=1;" vertex="1" parent="1">
          <mxGeometry x="310" y="212.5" width="780" height="65" as="geometry" />
        </mxCell>
        <mxCell id="eZFEHE-rbK6bmzk9ROiz-25" value="&lt;span style=&quot;color: rgb(51 , 51 , 51) ; font-size: 18px&quot;&gt;Alarm Manager&lt;/span&gt;" style="rounded=1;whiteSpace=wrap;html=1;shadow=1;" vertex="1" parent="1">
          <mxGeometry x="610" y="225" width="160" height="40" as="geometry" />
        </mxCell>
        <mxCell id="eZFEHE-rbK6bmzk9ROiz-26" value="&lt;span style=&quot;color: rgb(51 , 51 , 51) ; font-size: 18px&quot;&gt;Tuning Manager&lt;/span&gt;" style="rounded=1;whiteSpace=wrap;html=1;shadow=1;" vertex="1" parent="1">
          <mxGeometry x="876" y="225" width="171" height="40" as="geometry" />
        </mxCell>
        <mxCell id="eZFEHE-rbK6bmzk9ROiz-28" value="&lt;span style=&quot;color: rgb(51 , 51 , 51) ; font-size: 18px&quot;&gt;Resource Manager&lt;/span&gt;" style="rounded=1;whiteSpace=wrap;html=1;shadow=1;" vertex="1" parent="1">
          <mxGeometry x="355" y="225" width="171" height="40" as="geometry" />
        </mxCell>
        <mxCell id="eZFEHE-rbK6bmzk9ROiz-29" value="&lt;font style=&quot;font-size: 18px&quot;&gt;Controller &amp;amp; Interface&lt;/font&gt;" style="rounded=1;whiteSpace=wrap;html=1;" vertex="1" parent="1">
          <mxGeometry x="310" y="120" width="780" height="47.5" as="geometry" />
        </mxCell>
        <mxCell id="eZFEHE-rbK6bmzk9ROiz-30" value="&lt;font style=&quot;font-size: 18px&quot;&gt;Web UI&lt;/font&gt;" style="rounded=1;whiteSpace=wrap;html=1;" vertex="1" parent="1">
          <mxGeometry x="310" y="40" width="780" height="47.5" as="geometry" />
        </mxCell>
      </root>
    </mxGraphModel>
  </diagram>
</mxfile>
